<?xml version="1.0" standalone="no"?>
<!DOCTYPE svg PUBLIC "-//W3C//DTD SVG 20010904//EN"
 "http://www.w3.org/TR/2001/REC-SVG-20010904/DTD/svg10.dtd">
<svg version="1.0" xmlns="http://www.w3.org/2000/svg"
 width="1200.000000pt" height="1200.000000pt" viewBox="0 0 1200.000000 1200.000000"
 preserveAspectRatio="xMidYMid meet">
<metadata>
Created by potrace 1.11, written by Peter Selinger 2001-2013
</metadata>
<g transform="translate(0.000000,1200.000000) scale(0.100000,-0.100000)"
fill="#000000" stroke="none">
<path d="M5719 9840 c-261 -24 -484 -99 -581 -196 -41 -40 -53 -78 -44 -130
l7 -34 -68 0 c-197 0 -327 -178 -388 -534 -23 -135 -35 -419 -26 -601 l9 -160
66 -179 67 -179 -49 -46 c-27 -25 -58 -62 -68 -81 -29 -54 -24 -160 13 -315
17 -71 34 -165 38 -208 12 -152 67 -239 159 -252 24 -4 48 -5 53 -2 5 3 14
-45 21 -106 29 -277 117 -448 276 -542 31 -18 62 -305 33 -305 -16 0 -173 -18
-213 -25 l-31 -5 -7 -83 c-14 -167 -4 -151 -129 -214 -61 -30 -154 -80 -206
-110 -119 -69 -295 -157 -426 -214 -55 -23 -192 -89 -305 -145 -488 -244 -771
-473 -890 -719 -55 -115 -138 -493 -365 -1660 -63 -324 -118 -602 -121 -617
l-6 -28 3383 0 3382 0 -7 93 c-19 274 -213 1167 -449 2072 -30 116 -60 241
-67 280 -37 224 -270 435 -661 603 -93 39 -250 91 -505 166 -189 55 -389 145
-576 259 -81 50 -89 67 -97 212 l-6 99 -85 13 c-47 7 -99 15 -116 18 l-32 5
-6 128 c-4 70 -10 141 -12 158 -5 28 -2 32 36 49 116 52 189 222 212 493 l12
133 26 -6 c90 -20 188 114 264 358 52 167 68 243 68 339 1 72 -3 94 -23 135
-27 54 -77 93 -122 93 -29 0 -29 0 -22 43 4 23 11 67 16 97 16 98 22 486 10
650 -32 435 -72 591 -196 765 -220 310 -712 482 -1246 435z"/>
<path d="M2917 9616 c-46 -41 -117 -113 -158 -160 -40 -47 -75 -86 -77 -86 -3
0 -1 37 3 82 l7 81 -49 -37 c-47 -36 -209 -145 -444 -299 -241 -158 -349 -326
-380 -592 -10 -82 -9 -145 5 -351 9 -137 19 -260 22 -271 5 -17 -1 -25 -24
-37 -16 -8 -42 -30 -57 -48 -26 -31 -27 -35 -22 -123 15 -254 36 -435 57 -483
28 -66 66 -101 120 -110 l43 -7 22 -100 c52 -228 147 -447 273 -630 40 -58 55
-88 53 -110 -2 -41 -79 -418 -91 -449 -5 -14 -15 -26 -22 -26 -7 0 -110 -49
-228 -108 -375 -189 -608 -283 -987 -402 -143 -45 -422 -185 -501 -252 -248
-209 -405 -602 -464 -1158 -14 -132 -18 -692 -6 -723 7 -16 74 -17 1217 -17
l1209 0 5 22 c3 13 60 273 126 578 67 305 131 589 142 630 49 177 151 342 314
506 225 228 514 406 1014 624 l143 63 -237 119 c-130 65 -242 118 -250 118 -7
0 -18 15 -24 33 -13 40 -44 207 -66 354 l-17 112 57 63 c158 175 295 459 341
707 22 117 18 111 56 105 24 -4 40 0 61 16 64 51 85 149 90 415 2 135 -1 165
-15 191 -16 30 -66 78 -102 99 -17 9 -17 25 -6 250 14 267 9 440 -15 530 -38
139 -130 279 -250 378 -134 111 -659 397 -728 397 -5 0 -7 -20 -5 -45 2 -25
-1 -45 -5 -45 -4 0 -18 21 -29 47 -16 35 -21 70 -22 135 -1 48 -4 88 -7 88 -4
0 -45 -33 -92 -74z"/>
<path d="M9230 9473 c-82 -9 -208 -36 -280 -59 -169 -53 -388 -172 -482 -261
-106 -102 -229 -321 -273 -486 -44 -166 -129 -679 -165 -992 -58 -501 -90
-619 -274 -980 -44 -88 -82 -164 -85 -168 -17 -40 131 92 231 206 37 42 68 76
68 74 0 -25 -98 -282 -121 -319 -17 -27 -30 -50 -28 -53 19 -18 227 -95 414
-153 127 -39 260 -81 298 -92 l67 -21 0 -47 c0 -26 -3 -91 -7 -144 -6 -96 -6
-97 -36 -109 -58 -24 -172 -106 -215 -155 -24 -27 -68 -89 -97 -139 l-52 -90
51 -21 c28 -11 93 -42 143 -68 391 -196 631 -455 679 -727 14 -83 43 -202 216
-884 88 -348 158 -666 158 -718 l0 -27 1281 0 1281 0 -7 123 c-4 67 -21 422
-40 788 l-33 666 -32 64 c-72 141 -177 266 -259 308 -23 12 -93 33 -154 46
-306 65 -477 123 -583 196 -55 37 -212 112 -344 163 -109 43 -148 78 -207 185
-20 37 -46 83 -60 104 -27 43 -161 146 -232 179 l-49 22 -4 140 c-3 78 -4 142
-4 143 1 1 139 45 307 97 264 83 444 148 465 169 4 3 -11 34 -33 69 -22 35
-47 86 -56 113 -28 88 -57 199 -49 189 122 -141 277 -292 289 -280 2 1 -32 77
-76 167 -176 366 -227 548 -276 979 -32 279 -114 773 -161 969 -41 174 -165
405 -275 512 -77 75 -293 196 -444 249 -144 51 -357 85 -455 73z"/>
</g>
</svg>
