<?xml version="1.0" encoding="utf-8"?>
<!-- Generator: Adobe Illustrator 18.1.1, SVG Export Plug-In . SVG Version: 6.00 Build 0)  -->
<!DOCTYPE svg PUBLIC "-//W3C//DTD SVG 1.1//EN" "http://www.w3.org/Graphics/SVG/1.1/DTD/svg11.dtd">
<svg version="1.1" id="Layer_1" xmlns="http://www.w3.org/2000/svg" xmlns:xlink="http://www.w3.org/1999/xlink" x="0px" y="0px"
	 viewBox="0 0 1728 1728" style="enable-background:new 0 0 1728 1728;" xml:space="preserve">
<path d="M1169.4,420.5c-48.5-41.5-57.8-62.5-110.9-94.6c0,0-32-20.9-60.7,32c-25.4,46.7-41.9,71-95,78.8l0.3-18.4
	c25.6-13.9,43-41,43-72.2c0-45.3-36.8-82.1-82.1-82.1s-82.1,36.8-82.1,82.1c0,30.7,16.9,57.5,41.9,71.6l0.3,20.2
	c-59.8-6.5-76.6-30.9-103.3-79.9c-28.7-52.8-60.7-32-60.7-32c-53.1,32-62.3,53-110.9,94.6C382.2,563.4,264,536.6,264,536.6
	c27.6,69.1,105.2,72.4,133.9,63.9c32.6,39.1,110.9,35.9,138.9,17c49.6,44.4,114.8,2.6,114.8,2.6c54.8,39.1,108.9,4.6,108.9,4.6
	c16.3,19.5,48.4,20.7,66.4,19.6l2.6,184.7c-54.3-14.6-110.4-20.1-155.7-27.7c-63.3-10.6-94.6-16.8-120.4-42.3
	c44.1-28.6,195.1-19.7,195.1-19.7c65.2-7.9,38.8-42.2,38.8-42.2c-6.6-21.1-47.9-19.4-47.9-19.4c-213.7,5.2-267.2,6.5-290.6,86
	c-6.5,62.6,151.2,114.7,290.6,136.8c3.2,0.5,6.3,1,9.4,1.5c-35.9,28.5-63.3,64.3-69.4,109c-8.9,64.4,28,101.7,123.3,156
	c-71.7,51.7-100,88.9-110.2,123.2C662,1392.3,813.7,1464,813.7,1464c-59.8-89.4-85.4-176.2,21.4-247.2l2.4,172.5
	c0,0,6.3,24.1,25.9,24.1c19.6,0,25.9-24.1,25.9-24.1l2.4-172.3c106.6,70.9,80.9,157.7,21.2,247c0,0,151.7-71.7,121.2-173.7
	c-10.2-34.3-38.5-71.5-110.2-123.2c95.2-54.3,132.2-91.6,123.3-156c-6.2-44.7-33.5-80.4-69.4-109c3.1-0.5,6.3-1,9.4-1.5
	c139.5-22.2,297.2-74.3,290.6-136.8c-23.5-79.5-76.9-80.8-290.6-86c0,0-41.3-1.7-47.9,19.4c0,0-26.4,34.3,38.8,42.2
	c0,0,151-8.9,195.1,19.7c-25.9,25.4-57.1,31.7-120.4,42.3c-45.2,7.5-101.2,13.1-155.5,27.6l2.6-184.4c18.4,0.1,44.1-3.1,58.2-19.9
	c0,0,54.1,34.6,108.9-4.6c0,0,65.2,41.7,114.8-2.6c28,18.9,106.3,22.2,138.9-17c28.7,8.5,106.3,5.2,133.9-63.9
	C1454.6,536.6,1336.3,563.4,1169.4,420.5z M763,1002.2c2.7-22,26.2-42.9,68.1-61l2.4,166.1C747,1050.1,758.3,1040.1,763,1002.2z
	 M893.3,1107.2l2.4-165.9c41.8,18.1,65.2,39,67.9,60.9C968.3,1040.1,979.7,1050,893.3,1107.2z"/>
</svg>
