<?xml version="1.0" encoding="utf-8"?>
<!-- Generator: Adobe Illustrator 18.1.1, SVG Export Plug-In . SVG Version: 6.00 Build 0)  -->
<!DOCTYPE svg PUBLIC "-//W3C//DTD SVG 1.1//EN" "http://www.w3.org/Graphics/SVG/1.1/DTD/svg11.dtd">
<svg version="1.1" id="Layer_1" xmlns="http://www.w3.org/2000/svg" xmlns:xlink="http://www.w3.org/1999/xlink" x="0px" y="0px"
	 viewBox="0 0 1728 1728" style="enable-background:new 0 0 1728 1728;" xml:space="preserve">
<g>
	<path d="M1396.5,584.6L1084.5,264H530.2v902.8l-184.1,172.4l120.1,124.4l67.4-71.7h862.8V584.6z M1099.3,416l149.7,150.3h-149.7
		V416z M1310.9,1301.2h-279.1v2.1H622.9v-6.4l308.8-328.2l65.7,58.4l166.5-172.8L955.2,641.5L782.4,814.4l59,61.1L622.9,1080V357
		h408.9v276.1h279.1V1301.2z"/>
	<path d="M1007.1,1081.2l2.8,2.8c9.4,9.3,24.6,9.2,33.9-0.2l174.1-175.9c9.3-9.4,9.2-24.6-0.2-33.9l-2.8-2.8
		c-9.4-9.3-24.6-9.2-33.9,0.2l-174.1,175.9C997.7,1056.7,997.8,1071.9,1007.1,1081.2z"/>
	<path d="M933.7,587.8c-9.4-9.3-24.6-9.2-33.9,0.2L725.7,763.9c-9.3,9.4-9.2,24.6,0.2,33.9l2.8,2.8c9.4,9.3,24.6,9.2,33.9-0.2
		l174.1-175.9c9.3-9.4,9.2-24.6-0.2-33.9L933.7,587.8z"/>
</g>
</svg>
