<?xml version="1.0" standalone="no"?>
<!DOCTYPE svg PUBLIC "-//W3C//DTD SVG 20010904//EN"
 "http://www.w3.org/TR/2001/REC-SVG-20010904/DTD/svg10.dtd">
<svg version="1.0" xmlns="http://www.w3.org/2000/svg"
 width="1200.000000pt" height="1200.000000pt" viewBox="0 0 1200.000000 1200.000000"
 preserveAspectRatio="xMidYMid meet">
<metadata>
Created by potrace 1.11, written by Peter Selinger 2001-2013
</metadata>
<g transform="translate(0.000000,1200.000000) scale(0.100000,-0.100000)"
fill="#000000" stroke="none">
<path d="M7190 11923 c-36 -2 -137 -10 -225 -19 -1341 -131 -2566 -864 -3324
-1989 -134 -199 -197 -307 -299 -511 -247 -493 -388 -970 -459 -1554 -25 -207
-25 -772 0 -985 114 -953 471 -1775 1083 -2491 147 -172 414 -429 599 -578
686 -549 1467 -875 2355 -982 185 -22 635 -30 842 -14 974 72 1891 448 2634
1080 231 197 522 509 704 754 818 1105 1095 2509 759 3848 -147 584 -411 1135
-777 1623 -418 558 -973 1021 -1598 1335 -712 359 -1484 521 -2294 483z m660
-888 c858 -97 1632 -477 2236 -1096 799 -820 1168 -1963 1003 -3104 -227
-1569 -1429 -2815 -2989 -3099 -393 -71 -879 -76 -1263 -11 -1171 198 -2162
924 -2691 1975 -201 397 -322 802 -378 1255 -17 146 -18 673 0 815 48 384 134
714 274 1045 409 971 1237 1730 2243 2059 308 100 580 152 950 180 105 8 476
-4 615 -19z"/>
<path d="M8629 9631 l-24 -19 -5 -384 -5 -385 -569 399 c-427 299 -576 398
-597 398 -42 0 -2486 -1711 -2495 -1747 -4 -13 -2 -34 3 -46 13 -28 318 -464
346 -494 34 -38 72 -30 160 32 l77 55 0 -1159 c0 -1157 0 -1158 21 -1185 l20
-26 673 0 c671 0 673 0 692 21 18 20 19 52 22 895 l2 874 480 0 480 0 0 -869
c0 -863 0 -868 21 -895 l20 -26 668 0 c634 0 669 1 684 18 16 17 17 114 17
1185 0 642 4 1167 8 1167 5 0 44 -25 87 -55 99 -69 130 -72 173 -17 76 97 331
471 337 493 4 17 0 33 -14 50 -10 14 -148 115 -305 224 l-286 200 0 633 0 633
-25 24 -24 25 -309 0 c-290 0 -311 -1 -333 -19z"/>
<path d="M2885 3820 c-73 -10 -145 -34 -205 -68 -55 -31 -2557 -2526 -2600
-2593 -56 -87 -73 -151 -74 -284 0 -142 15 -208 79 -340 79 -164 216 -301 380
-380 129 -62 198 -79 335 -79 131 0 201 19 299 81 69 43 2526 2493 2575 2568
65 98 80 155 81 300 0 145 -17 220 -80 345 -149 297 -489 490 -790 450z"/>
</g>
</svg>
