<?xml version="1.0" standalone="no"?>
<!DOCTYPE svg PUBLIC "-//W3C//DTD SVG 20010904//EN"
 "http://www.w3.org/TR/2001/REC-SVG-20010904/DTD/svg10.dtd">
<svg version="1.0" xmlns="http://www.w3.org/2000/svg"
 width="1200.000000pt" height="1200.000000pt" viewBox="0 0 1200.000000 1200.000000"
 preserveAspectRatio="xMidYMid meet">
<metadata>
Created by potrace 1.11, written by Peter Selinger 2001-2013
</metadata>
<g transform="translate(0.000000,1200.000000) scale(0.100000,-0.100000)"
fill="#000000" stroke="none">
<path d="M8761 11223 c-23 -20 -42 -57 -169 -333 -232 -503 -262 -560 -612
-1145 -503 -841 -531 -889 -517 -901 6 -7 321 -213 699 -458 l688 -446 927
210 c511 116 936 213 945 216 17 5 169 231 330 494 313 510 545 948 672 1269
68 172 69 176 53 190 -26 21 -187 -45 -374 -155 -32 -19 -32 -19 -60 4 -71 56
-187 128 -278 172 -191 94 -348 144 -1360 435 -778 223 -728 207 -742 235 -6
14 -28 60 -47 102 -54 120 -103 154 -155 111z m266 -1139 c26 -9 134 -58 238
-109 105 -51 233 -109 285 -130 215 -84 714 -244 1175 -375 340 -97 315 -87
331 -125 20 -48 18 -135 -5 -187 -21 -50 -133 -230 -165 -266 -12 -13 -38 -33
-58 -43 -46 -24 -175 -25 -328 -4 -296 42 -502 29 -891 -55 -125 -27 -269 -55
-318 -61 -147 -20 -155 -17 -488 201 -392 256 -405 266 -421 317 -31 97 21
211 240 533 159 234 192 274 253 301 50 23 91 24 152 3z m-869 -1064 c61 -37
79 -122 39 -181 -28 -41 -60 -59 -110 -59 -79 0 -131 52 -131 131 0 104 112
164 202 109z m2013 -329 c34 -33 39 -45 39 -83 0 -51 -30 -104 -70 -126 -15
-8 -45 -11 -74 -9 -42 4 -55 10 -83 41 -28 30 -33 43 -33 83 1 86 48 133 134
133 43 0 53 -4 87 -39z m-1141 -230 c14 -9 33 -34 44 -55 24 -49 15 -97 -27
-143 -85 -92 -237 -21 -224 105 10 99 125 151 207 93z"/>
<path d="M3350 10904 c-382 -45 -724 -179 -1110 -437 -218 -146 -456 -341
-590 -484 -90 -96 -139 -185 -240 -438 -112 -281 -149 -336 -303 -461 -62 -49
-128 -88 -266 -155 -210 -103 -261 -139 -391 -276 -141 -149 -179 -235 -134
-303 34 -52 600 -612 638 -632 30 -15 53 -19 97 -16 77 6 149 50 263 163 75
74 102 111 155 205 135 243 158 282 215 360 122 167 428 433 581 506 198 94
337 59 544 -141 153 -147 193 -167 252 -127 15 9 193 181 398 382 364 359 371
366 371 405 0 57 -22 87 -184 253 -164 168 -190 209 -190 297 0 81 34 145 117
221 119 109 334 200 531 224 207 26 620 -2 1041 -71 152 -25 208 -30 280 -26
277 16 158 115 -336 281 -355 118 -665 193 -1025 247 -107 16 -201 21 -409 24
-148 2 -286 1 -305 -1z"/>
<path d="M3488 9002 l-357 -357 237 -224 c1015 -961 2087 -2024 2886 -2861
754 -790 1502 -1517 2481 -2410 371 -338 491 -456 645 -630 362 -409 597 -799
625 -1040 20 -172 97 -252 227 -237 106 13 129 32 555 461 420 421 443 449
443 533 0 60 -32 98 -155 186 -169 120 -253 196 -521 472 -225 230 -252 255
-282 255 -23 0 -43 10 -69 34 -32 29 -38 40 -38 79 -1 44 -2 46 -330 401 -315
340 -331 356 -365 356 -63 0 -110 53 -110 125 0 34 -19 55 -343 380 -311 310
-346 342 -370 338 -60 -12 -127 43 -127 102 0 39 -4 43 -525 490 -820 704
-1413 1227 -1915 1689 -107 99 -654 638 -1215 1198 l-1020 1018 -357 -358z"/>
<path d="M6936 7863 l-559 -827 54 -50 c203 -189 1039 -923 1581 -1388 l276
-238 60 0 59 0 7 38 c3 20 6 63 6 96 l0 58 98 -3 97 -4 3 93 3 92 99 0 100 0
0 79 c0 116 -5 111 106 104 l94 -6 0 50 c0 28 3 72 7 98 l6 48 92 -6 93 -5 7
94 7 94 93 0 92 0 7 38 c3 20 6 63 6 95 l0 57 98 -2 97 -3 3 93 3 94 97 -4 97
-3 3 75 c4 123 -4 115 107 112 l95 -3 0 49 c0 27 3 70 6 96 l7 48 92 -7 93 -7
7 97 8 97 93 -4 93 -4 6 51 c3 27 6 70 8 95 l2 44 98 -3 97 -3 0 97 0 98 100
-7 99 -8 3 94 3 93 95 1 95 2 6 73 c4 41 7 104 8 140 l1 66 -122 134 c-67 74
-124 135 -127 137 -4 1 -310 -67 -681 -152 -371 -85 -818 -187 -992 -226
l-317 -73 -143 92 c-79 51 -368 239 -643 418 -275 179 -507 327 -515 329 -10
3 -188 -251 -574 -823z"/>
<path d="M5607 5898 c-35 -51 -617 -910 -1292 -1908 -676 -998 -1334 -1970
-1462 -2160 -222 -327 -233 -345 -216 -361 10 -9 160 -127 333 -261 l315 -245
136 -6 136 -5 7 60 c3 34 6 76 6 94 l0 34 94 0 c109 0 106 -4 106 117 l0 72
100 -6 100 -6 0 98 0 98 100 -6 100 -5 0 68 c0 37 3 80 6 96 l5 29 95 -3 94
-3 0 34 c0 19 3 62 6 96 l7 62 92 -7 92 -7 6 48 c4 26 7 70 7 98 l0 50 95 -5
c110 -6 103 -13 107 111 l3 74 97 -2 97 -2 3 93 3 93 98 -3 97 -4 0 59 c0 32
3 75 7 97 l6 38 93 -4 92 -4 7 97 7 96 92 -5 93 -5 6 39 c4 22 7 65 7 97 l0
59 98 -4 97 -3 3 93 3 92 99 0 100 0 0 73 c0 121 -4 116 106 110 l94 -6 0 44
c0 24 3 68 7 98 l6 54 92 -6 92 -6 7 61 c3 33 6 76 6 94 l0 34 94 0 94 0 6 31
c3 17 6 60 6 96 l0 64 100 -7 100 -7 0 98 0 97 98 -4 97 -3 2 55 c2 30 5 73 8
95 l5 40 94 -3 93 -3 6 77 6 78 -352 356 c-194 195 -538 550 -766 788 -228
237 -415 432 -417 432 -2 0 -32 -42 -67 -92z m-2011 -3487 c40 -25 68 -83 61
-131 -6 -50 -195 -333 -240 -360 -91 -56 -215 22 -204 128 4 35 25 73 102 188
53 79 110 155 126 169 38 31 109 34 155 6z"/>
</g>
</svg>
